<mxfile host="app.diagrams.net" modified="2024-04-26T00:37:05.951Z" agent="Mozilla/5.0 (Windows NT 10.0; Win64; x64) AppleWebKit/537.36 (KHTML, like Gecko) Chrome/124.0.0.0 Safari/537.36 Edg/124.0.0.0" etag="vtpeUarpkX_IIB5aVdrU" version="24.3.0" type="device">
  <diagram name="PÃ¡gina-1" id="voQJaMa-cOD1sciM42y9">
    <mxGraphModel dx="1055" dy="599" grid="1" gridSize="10" guides="1" tooltips="1" connect="1" arrows="1" fold="1" page="1" pageScale="1" pageWidth="827" pageHeight="1169" math="0" shadow="0">
      <root>
        <mxCell id="0" />
        <mxCell id="1" parent="0" />
        <mxCell id="m1cAISgEJc2a-TAxOBf6-1" value="Item" style="swimlane;fontStyle=1;align=center;verticalAlign=top;childLayout=stackLayout;horizontal=1;startSize=26;horizontalStack=0;resizeParent=1;resizeParentMax=0;resizeLast=0;collapsible=1;marginBottom=0;whiteSpace=wrap;html=1;" vertex="1" parent="1">
          <mxGeometry x="160" y="40" width="160" height="170" as="geometry" />
        </mxCell>
        <mxCell id="m1cAISgEJc2a-TAxOBf6-2" value="- cantidad : int.&lt;div&gt;- nombre : string&lt;/div&gt;&lt;div&gt;- durabilidad : int.&lt;/div&gt;" style="text;strokeColor=none;fillColor=none;align=left;verticalAlign=top;spacingLeft=4;spacingRight=4;overflow=hidden;rotatable=0;points=[[0,0.5],[1,0.5]];portConstraint=eastwest;whiteSpace=wrap;html=1;" vertex="1" parent="m1cAISgEJc2a-TAxOBf6-1">
          <mxGeometry y="26" width="160" height="64" as="geometry" />
        </mxCell>
        <mxCell id="m1cAISgEJc2a-TAxOBf6-3" value="" style="line;strokeWidth=1;fillColor=none;align=left;verticalAlign=middle;spacingTop=-1;spacingLeft=3;spacingRight=3;rotatable=0;labelPosition=right;points=[];portConstraint=eastwest;strokeColor=inherit;" vertex="1" parent="m1cAISgEJc2a-TAxOBf6-1">
          <mxGeometry y="90" width="160" height="8" as="geometry" />
        </mxCell>
        <mxCell id="m1cAISgEJc2a-TAxOBf6-4" value="+ usar()&lt;div&gt;+ tirar()&lt;/div&gt;&lt;div&gt;+ recoger()&lt;/div&gt;&lt;div&gt;+ comprar()&lt;/div&gt;&lt;div&gt;&lt;br&gt;&lt;/div&gt;" style="text;strokeColor=none;fillColor=none;align=left;verticalAlign=top;spacingLeft=4;spacingRight=4;overflow=hidden;rotatable=0;points=[[0,0.5],[1,0.5]];portConstraint=eastwest;whiteSpace=wrap;html=1;" vertex="1" parent="m1cAISgEJc2a-TAxOBf6-1">
          <mxGeometry y="98" width="160" height="72" as="geometry" />
        </mxCell>
        <mxCell id="m1cAISgEJc2a-TAxOBf6-7" style="edgeStyle=orthogonalEdgeStyle;rounded=0;orthogonalLoop=1;jettySize=auto;html=1;" edge="1" parent="1" source="m1cAISgEJc2a-TAxOBf6-6" target="m1cAISgEJc2a-TAxOBf6-8">
          <mxGeometry relative="1" as="geometry">
            <mxPoint x="660" y="170" as="targetPoint" />
          </mxGeometry>
        </mxCell>
        <mxCell id="m1cAISgEJc2a-TAxOBf6-6" value="buyNougat" style="ellipse;whiteSpace=wrap;html=1;" vertex="1" parent="1">
          <mxGeometry x="600" y="50" width="120" height="60" as="geometry" />
        </mxCell>
        <mxCell id="m1cAISgEJc2a-TAxOBf6-9" style="edgeStyle=orthogonalEdgeStyle;rounded=0;orthogonalLoop=1;jettySize=auto;html=1;" edge="1" parent="1" source="m1cAISgEJc2a-TAxOBf6-8" target="m1cAISgEJc2a-TAxOBf6-10">
          <mxGeometry relative="1" as="geometry">
            <mxPoint x="660" y="260" as="targetPoint" />
          </mxGeometry>
        </mxCell>
        <mxCell id="m1cAISgEJc2a-TAxOBf6-8" value="getNougat" style="shape=parallelogram;perimeter=parallelogramPerimeter;whiteSpace=wrap;html=1;fixedSize=1;" vertex="1" parent="1">
          <mxGeometry x="600" y="140" width="120" height="60" as="geometry" />
        </mxCell>
        <mxCell id="m1cAISgEJc2a-TAxOBf6-11" style="edgeStyle=orthogonalEdgeStyle;rounded=0;orthogonalLoop=1;jettySize=auto;html=1;entryX=0.5;entryY=0;entryDx=0;entryDy=0;" edge="1" parent="1" source="m1cAISgEJc2a-TAxOBf6-10" target="m1cAISgEJc2a-TAxOBf6-46">
          <mxGeometry relative="1" as="geometry">
            <mxPoint x="780.0526315789475" y="350" as="targetPoint" />
          </mxGeometry>
        </mxCell>
        <mxCell id="m1cAISgEJc2a-TAxOBf6-13" value="true" style="edgeLabel;html=1;align=center;verticalAlign=middle;resizable=0;points=[];" vertex="1" connectable="0" parent="m1cAISgEJc2a-TAxOBf6-11">
          <mxGeometry relative="1" as="geometry">
            <mxPoint as="offset" />
          </mxGeometry>
        </mxCell>
        <mxCell id="m1cAISgEJc2a-TAxOBf6-14" style="edgeStyle=orthogonalEdgeStyle;rounded=0;orthogonalLoop=1;jettySize=auto;html=1;exitX=0;exitY=0.5;exitDx=0;exitDy=0;entryX=0.5;entryY=0;entryDx=0;entryDy=0;" edge="1" parent="1" source="m1cAISgEJc2a-TAxOBf6-10" target="m1cAISgEJc2a-TAxOBf6-36">
          <mxGeometry relative="1" as="geometry">
            <mxPoint x="540.0526315789473" y="350" as="targetPoint" />
          </mxGeometry>
        </mxCell>
        <mxCell id="m1cAISgEJc2a-TAxOBf6-15" value="false" style="edgeLabel;html=1;align=center;verticalAlign=middle;resizable=0;points=[];" vertex="1" connectable="0" parent="m1cAISgEJc2a-TAxOBf6-14">
          <mxGeometry x="0.0664" y="-2" relative="1" as="geometry">
            <mxPoint as="offset" />
          </mxGeometry>
        </mxCell>
        <mxCell id="m1cAISgEJc2a-TAxOBf6-10" value="payNougat 1" style="rhombus;whiteSpace=wrap;html=1;" vertex="1" parent="1">
          <mxGeometry x="610" y="229" width="100" height="50" as="geometry" />
        </mxCell>
        <mxCell id="m1cAISgEJc2a-TAxOBf6-18" style="edgeStyle=orthogonalEdgeStyle;rounded=0;orthogonalLoop=1;jettySize=auto;html=1;entryX=1;entryY=0.5;entryDx=0;entryDy=0;exitX=0.5;exitY=1;exitDx=0;exitDy=0;" edge="1" parent="1" source="m1cAISgEJc2a-TAxOBf6-46" target="m1cAISgEJc2a-TAxOBf6-20">
          <mxGeometry relative="1" as="geometry">
            <mxPoint x="780" y="500" as="targetPoint" />
            <mxPoint x="780.0526315789475" y="410" as="sourcePoint" />
            <Array as="points">
              <mxPoint x="780" y="490" />
            </Array>
          </mxGeometry>
        </mxCell>
        <mxCell id="m1cAISgEJc2a-TAxOBf6-20" value="beHappy" style="ellipse;whiteSpace=wrap;html=1;" vertex="1" parent="1">
          <mxGeometry x="620" y="460" width="110" height="60" as="geometry" />
        </mxCell>
        <mxCell id="m1cAISgEJc2a-TAxOBf6-25" style="edgeStyle=orthogonalEdgeStyle;rounded=0;orthogonalLoop=1;jettySize=auto;html=1;entryX=0.5;entryY=0;entryDx=0;entryDy=0;" edge="1" parent="1" source="m1cAISgEJc2a-TAxOBf6-24" target="m1cAISgEJc2a-TAxOBf6-42">
          <mxGeometry relative="1" as="geometry">
            <mxPoint x="350" y="510" as="targetPoint" />
          </mxGeometry>
        </mxCell>
        <mxCell id="m1cAISgEJc2a-TAxOBf6-24" value="fallPrisoner" style="rounded=0;whiteSpace=wrap;html=1;" vertex="1" parent="1">
          <mxGeometry x="230" y="352.25" width="120" height="60" as="geometry" />
        </mxCell>
        <mxCell id="m1cAISgEJc2a-TAxOBf6-28" style="edgeStyle=orthogonalEdgeStyle;rounded=0;orthogonalLoop=1;jettySize=auto;html=1;entryX=0.5;entryY=1;entryDx=0;entryDy=0;exitX=1;exitY=0.5;exitDx=0;exitDy=0;" edge="1" parent="1" source="m1cAISgEJc2a-TAxOBf6-42">
          <mxGeometry relative="1" as="geometry">
            <mxPoint x="410" y="543.0526315789473" as="sourcePoint" />
            <mxPoint x="675" y="523" as="targetPoint" />
            <Array as="points">
              <mxPoint x="675" y="543" />
            </Array>
          </mxGeometry>
        </mxCell>
        <mxCell id="m1cAISgEJc2a-TAxOBf6-29" value="true" style="edgeLabel;html=1;align=center;verticalAlign=middle;resizable=0;points=[];" vertex="1" connectable="0" parent="m1cAISgEJc2a-TAxOBf6-28">
          <mxGeometry x="-0.693" relative="1" as="geometry">
            <mxPoint as="offset" />
          </mxGeometry>
        </mxCell>
        <mxCell id="m1cAISgEJc2a-TAxOBf6-56" style="edgeStyle=orthogonalEdgeStyle;rounded=0;orthogonalLoop=1;jettySize=auto;html=1;exitX=0;exitY=0.5;exitDx=0;exitDy=0;entryX=1;entryY=0.5;entryDx=0;entryDy=0;" edge="1" parent="1" source="m1cAISgEJc2a-TAxOBf6-36" target="m1cAISgEJc2a-TAxOBf6-24">
          <mxGeometry relative="1" as="geometry" />
        </mxCell>
        <mxCell id="m1cAISgEJc2a-TAxOBf6-57" value="false" style="edgeLabel;html=1;align=center;verticalAlign=middle;resizable=0;points=[];" vertex="1" connectable="0" parent="m1cAISgEJc2a-TAxOBf6-56">
          <mxGeometry x="-0.2179" relative="1" as="geometry">
            <mxPoint as="offset" />
          </mxGeometry>
        </mxCell>
        <mxCell id="m1cAISgEJc2a-TAxOBf6-36" value="stealTheNougatWell" style="rhombus;whiteSpace=wrap;html=1;" vertex="1" parent="1">
          <mxGeometry x="450" y="342.25" width="150" height="80" as="geometry" />
        </mxCell>
        <mxCell id="m1cAISgEJc2a-TAxOBf6-44" style="edgeStyle=orthogonalEdgeStyle;rounded=0;orthogonalLoop=1;jettySize=auto;html=1;exitX=0;exitY=0.5;exitDx=0;exitDy=0;entryX=0;entryY=0.5;entryDx=0;entryDy=0;" edge="1" parent="1" source="m1cAISgEJc2a-TAxOBf6-42" target="m1cAISgEJc2a-TAxOBf6-24">
          <mxGeometry relative="1" as="geometry">
            <mxPoint x="180" y="380" as="targetPoint" />
          </mxGeometry>
        </mxCell>
        <mxCell id="m1cAISgEJc2a-TAxOBf6-45" value="false" style="edgeLabel;html=1;align=center;verticalAlign=middle;resizable=0;points=[];" vertex="1" connectable="0" parent="m1cAISgEJc2a-TAxOBf6-44">
          <mxGeometry x="-0.4381" y="1" relative="1" as="geometry">
            <mxPoint as="offset" />
          </mxGeometry>
        </mxCell>
        <mxCell id="m1cAISgEJc2a-TAxOBf6-42" value="servingTime" style="rhombus;whiteSpace=wrap;html=1;" vertex="1" parent="1">
          <mxGeometry x="240" y="510" width="100" height="66" as="geometry" />
        </mxCell>
        <mxCell id="m1cAISgEJc2a-TAxOBf6-46" value="eatNougat" style="rhombus;whiteSpace=wrap;html=1;" vertex="1" parent="1">
          <mxGeometry x="716" y="342.25" width="130" height="80" as="geometry" />
        </mxCell>
        <mxCell id="m1cAISgEJc2a-TAxOBf6-47" style="edgeStyle=orthogonalEdgeStyle;rounded=0;orthogonalLoop=1;jettySize=auto;html=1;exitX=0.5;exitY=1;exitDx=0;exitDy=0;" edge="1" parent="1" source="m1cAISgEJc2a-TAxOBf6-46" target="m1cAISgEJc2a-TAxOBf6-46">
          <mxGeometry relative="1" as="geometry" />
        </mxCell>
        <mxCell id="m1cAISgEJc2a-TAxOBf6-54" style="edgeStyle=orthogonalEdgeStyle;rounded=0;orthogonalLoop=1;jettySize=auto;html=1;entryX=0;entryY=0.5;entryDx=0;entryDy=0;exitX=0.5;exitY=1;exitDx=0;exitDy=0;" edge="1" parent="1" source="m1cAISgEJc2a-TAxOBf6-36" target="m1cAISgEJc2a-TAxOBf6-20">
          <mxGeometry relative="1" as="geometry">
            <mxPoint x="540" y="500" as="targetPoint" />
            <mxPoint x="540.0526315789473" y="440" as="sourcePoint" />
            <Array as="points">
              <mxPoint x="525" y="490" />
            </Array>
          </mxGeometry>
        </mxCell>
        <mxCell id="m1cAISgEJc2a-TAxOBf6-55" value="true" style="edgeLabel;html=1;align=center;verticalAlign=middle;resizable=0;points=[];" vertex="1" connectable="0" parent="m1cAISgEJc2a-TAxOBf6-54">
          <mxGeometry x="-0.6996" y="-4" relative="1" as="geometry">
            <mxPoint as="offset" />
          </mxGeometry>
        </mxCell>
      </root>
    </mxGraphModel>
  </diagram>
</mxfile>
